<?xml version="1.0" encoding="UTF-8"?>
<svg width="50px" height="46px" viewBox="0 0 50 46" version="1.1" xmlns="http://www.w3.org/2000/svg" xmlns:xlink="http://www.w3.org/1999/xlink">
    <title>logo</title>
    <g stroke="none" stroke-width="1" fill="none" fill-rule="evenodd">
        <g transform="translate(-43.000000, -17.000000)">
            <g transform="translate(48.000000, 18.000000)">
                <circle  stroke="#FFFFFF" stroke-linecap="round" cx="22" cy="22" r="22"></circle>
                <path d="M14.4472656,28.3276367 L14.4472656,30.0244141 L9.02734375,30.0244141 C8.62044067,30.0488282 8.24202649,30.1464835 7.89208984,30.3173828 C7.50960095,30.740562 7.25325586,30.9277346 7.12304687,30.8789062 C7.00911401,30.3092419 6.81787244,30.0244141 6.54931641,30.0244141 C6.22379395,29.9186193 5.84131079,30.2400679 5.40185547,30.9887695 C4.74267249,32.1525123 4.14046497,33.1046512 3.59521484,33.8452148 C3.08251697,34.4799836 1.89844678,34.8055012 0.04296875,34.8217773 C-1.86947571,34.8380535 -3.06168384,35.0862606 -3.53369141,35.5664062 C-3.56624365,35.5908204 -3.58251953,35.6111653 -3.58251953,35.6274414 C-3.50927698,35.6355795 -3.4116217,35.6111656 -3.28955078,35.5541992 C-3.2000321,35.521647 -3.11865271,35.5053711 -3.04541016,35.5053711 C-3.15120496,35.5541995 -3.35465344,35.6925444 -3.65576172,35.9204102 C-3.81852295,36.026205 -4.00569556,36.0424808 -4.21728516,35.9692383 C-4.41259863,35.8878577 -4.43701245,35.843099 -4.29052734,35.8349609 C-4.17659448,35.8268229 -4.06266333,35.7739263 -3.94873047,35.6762695 C-3.81852148,35.5623367 -3.72900415,35.4321296 -3.68017578,35.2856445 C-3.59879517,35.0659169 -3.4726571,34.9519857 -3.30175781,34.9438477 C-3.27734363,34.9438477 -3.25699878,34.9519856 -3.24072266,34.9682617 C-3.24072266,34.9845378 -3.25699854,34.9967448 -3.28955078,35.0048828 C-3.39534558,35.0374351 -3.50927673,35.2001938 -3.63134766,35.4931641 C-2.85823181,34.9316378 -1.97933435,34.642741 -0.994628906,34.6264648 C1.34099475,34.5694984 2.77327209,34.2399119 3.30224609,33.6376953 C3.88818652,32.7262324 4.41308362,31.8147832 4.87695312,30.9033203 C5.59310254,29.405917 5.95117187,28.2828813 5.95117187,27.5341797 L5.95117187,12.5073242 L7.70898437,12.5073242 L7.70898437,28.3276367 L14.4472656,28.3276367 Z M31.9277344,23.5791016 C31.6022119,23.636068 31.2807633,23.7011715 30.9633789,23.7744141 L31.4882813,25.1049805 L31.9277344,23.5791016 Z M23.9321289,27.0214844 C25.4783606,25.7926371 27.2483624,24.8364292 29.2421875,24.152832 L26.3613281,16.7431641 L21.5151367,28.8891602 C21.9627301,28.6857086 22.5039031,28.3032255 23.1386719,27.7416992 C23.4316421,27.448729 23.6961251,27.2086598 23.9321289,27.0214844 Z M17.1450195,29.3041992 C18.4715236,29.6541359 19.5864213,29.6256531 20.4897461,29.21875 L18.4145508,21.7724609 C18.3819985,20.4785092 18.1704121,19.831543 17.7797852,19.831543 C17.3159156,19.9373378 16.7828806,20.7023041 16.1806641,22.1264648 C15.5947236,23.5262114 15.2854819,24.7346954 15.2529297,25.7519531 C15.2854819,27.6969498 15.9161722,28.88102 17.1450195,29.3041992 Z M41.8886719,25.3735352 C41.8235674,25.3247068 41.7218431,25.3084309 41.5834961,25.324707 C41.306802,25.4386399 41.042319,25.4549158 40.7900391,25.3735352 C40.6028636,25.2921545 40.5052084,25.1700854 40.4970703,25.0073242 C40.4970703,24.8364249 40.5703118,24.7224938 40.7167969,24.6655273 C38.8369047,23.7703406 36.5338678,23.314616 33.8076172,23.2983398 L31.8789062,30 L31.5493164,30 L29.3154297,24.3237305 C27.3216046,24.9747754 25.5516028,25.9228453 24.0053711,27.1679688 C23.7937815,27.3225919 23.5374364,27.5545232 23.2363281,27.8637695 C22.5690071,28.4252958 21.9667996,28.8321927 21.4296875,29.0844727 L21.0634766,30 L20.7216797,30 L20.5507812,29.3652344 C19.5823519,29.8046897 18.4226956,29.8453794 17.0717773,29.4873047 C15.7778256,28.9908829 15.0983076,27.770192 15.0332031,25.8251953 C15.0250651,24.8323518 15.2122377,23.7703507 15.5947266,22.6391602 C15.8225923,21.8172159 16.0056959,21.1254911 16.144043,20.5639648 C16.5590841,18.8956622 16.7666016,17.6912472 16.7666016,16.9506836 C16.7666016,16.8204746 16.7584636,16.7024745 16.7421875,16.5966797 L16.6079102,15.3759766 L18.3901367,15.3759766 L21.1367188,25.1049805 L26.1660156,12.4829102 L26.5200195,12.4829102 L30.9145508,23.6279297 C31.2807635,23.5302729 31.6347639,23.4529625 31.9765625,23.3959961 L35.1381836,12.4829102 L36.9082031,12.4829102 L33.8442383,23.1396484 C36.5623508,23.1640626 38.8816636,23.6279252 40.8022461,24.53125 C40.8429364,24.5638022 40.8714192,24.5597333 40.8876953,24.519043 C40.8632811,24.3725579 40.8510742,24.2871095 40.8510742,24.2626953 C40.8510742,24.1487625 40.8999019,24.0877279 40.9975586,24.0795898 C41.1440437,24.0795898 41.3352853,24.2667625 41.5712891,24.6411133 C41.7666025,24.9584977 41.8723958,25.2026359 41.8886719,25.3735352 Z" id="LW" fill="#FFFFFF" fill-rule="nonzero"></path>
            </g>
        </g>
    </g>
</svg>