<?xml version="1.0" standalone="no"?>
<!DOCTYPE svg PUBLIC "-//W3C//DTD SVG 20010904//EN"
 "http://www.w3.org/TR/2001/REC-SVG-20010904/DTD/svg10.dtd">
<svg version="1.0" xmlns="http://www.w3.org/2000/svg"
 width="800.000000pt" height="800.000000pt" viewBox="0 0 800.000000 800.000000"
 preserveAspectRatio="xMidYMid meet">
<metadata>
Created by potrace 1.11, written by Peter Selinger 2001-2013
</metadata>
<g transform="translate(0.000000,800.000000) scale(0.100000,-0.100000)"
fill="#000000" stroke="none">
<path d="M4247 7604 c-3 -3 -46 -8 -96 -9 -92 -4 -188 -12 -251 -20 -19 -3
-56 -7 -81 -10 -25 -3 -54 -7 -65 -9 -19 -4 -170 -32 -209 -39 -60 -11 -311
-83 -399 -113 -196 -69 -461 -189 -624 -283 -52 -31 -241 -154 -317 -208 -68
-48 -196 -152 -275 -221 -106 -96 -350 -344 -350 -358 0 -1 -12 -16 -26 -31
-20 -22 -116 -147 -182 -238 -4 -6 -19 -27 -34 -47 -16 -20 -28 -39 -28 -42 0
-2 -18 -32 -40 -65 -85 -128 -216 -384 -287 -561 -53 -131 -144 -406 -145
-440 0 -3 -7 -27 -15 -55 -9 -27 -17 -61 -19 -75 -5 -25 -33 -178 -40 -214 -3
-18 -11 -76 -20 -156 -3 -25 -7 -61 -9 -80 -3 -19 -7 -106 -10 -194 -3 -87 -8
-163 -11 -167 -3 -5 -2 -9 3 -9 4 0 8 -42 9 -93 2 -141 11 -249 40 -442 4 -27
8 -57 9 -65 1 -8 5 -22 8 -30 3 -8 8 -33 12 -55 4 -22 8 -47 9 -55 2 -8 8 -33
14 -55 6 -22 13 -52 16 -67 2 -15 7 -31 10 -36 3 -5 7 -19 10 -33 7 -42 66
-217 113 -338 53 -138 182 -406 247 -512 25 -42 46 -81 46 -87 0 -5 -26 -19
-57 -30 -144 -51 -225 -64 -478 -77 -106 -6 -156 -10 -221 -19 -50 -7 -166
-51 -222 -85 -47 -28 -83 -43 -57 -23 13 10 35 49 35 64 0 6 -11 1 -25 -12
-13 -12 -22 -26 -19 -31 7 -12 -70 -89 -89 -89 -29 0 -18 -19 16 -28 35 -10
77 7 133 54 l29 24 -28 -10 c-40 -14 -52 -13 -38 4 11 13 94 57 116 62 6 1 30
7 55 14 25 7 63 14 85 17 22 2 51 6 65 8 14 3 95 7 180 10 242 8 318 17 430
46 41 11 79 24 85 28 34 26 45 20 97 -56 29 -41 58 -83 63 -92 6 -8 15 -20 21
-26 5 -5 30 -37 55 -70 24 -32 51 -67 59 -75 8 -9 44 -50 80 -90 84 -96 195
-207 294 -295 44 -38 87 -77 96 -85 8 -8 43 -35 75 -59 33 -25 65 -50 70 -55
6 -6 18 -15 26 -21 9 -5 58 -39 110 -74 83 -58 284 -181 294 -181 2 0 28 -14
57 -31 29 -17 54 -31 55 -31 2 1 49 -20 105 -47 92 -42 132 -60 148 -66 3 -1
14 -5 25 -9 113 -44 305 -110 355 -121 8 -2 51 -13 95 -25 84 -22 96 -25 160
-35 22 -4 47 -9 55 -12 8 -3 22 -7 30 -8 60 -8 128 -18 142 -20 21 -4 120 -16
173 -21 36 -3 306 -16 330 -16 103 1 329 16 418 27 20 3 56 7 80 10 40 6 115
18 182 31 17 3 39 7 50 8 12 1 26 6 33 10 7 4 12 5 12 2 0 -2 29 4 65 14 36
10 66 19 68 18 18 -3 308 93 437 145 177 71 433 202 561 287 33 22 62 40 65
40 4 0 127 87 176 124 14 12 41 32 59 46 141 106 388 339 499 471 25 29 52 60
60 69 58 60 276 371 341 486 57 102 126 236 181 354 42 89 124 316 161 445 33
113 84 322 86 355 1 8 10 71 21 140 11 68 22 152 25 185 5 51 17 329 16 360
-5 176 -14 306 -26 400 -9 70 -27 189 -31 210 -2 11 -6 32 -9 48 -49 265 -150
580 -269 831 -23 50 -43 93 -43 96 0 3 -15 29 -32 58 -17 29 -31 55 -31 57 0
10 -166 282 -180 295 -3 3 -25 35 -50 71 -44 63 -61 86 -164 211 -97 120 -251
278 -375 388 -41 36 -85 74 -97 86 -13 11 -50 40 -84 65 -33 24 -60 47 -60 51
0 5 -4 8 -10 8 -5 0 -30 15 -54 34 -132 100 -510 314 -656 370 -25 10 -58 24
-75 31 -74 33 -314 116 -375 130 -8 2 -51 13 -95 25 -84 22 -96 25 -160 35
-22 4 -47 9 -55 12 -8 3 -22 7 -30 8 -56 7 -127 18 -140 20 -8 2 -44 6 -80 10
-36 4 -78 9 -95 11 -16 2 -108 6 -203 8 -95 3 -176 8 -181 10 -5 3 -11 3 -14
0z m381 -178 c36 -4 83 -10 167 -21 11 -1 47 -6 80 -10 33 -4 64 -10 70 -13 5
-3 21 -7 35 -7 28 -2 152 -30 220 -50 46 -14 127 -36 145 -41 25 -6 174 -59
210 -74 22 -10 51 -21 65 -25 52 -15 389 -185 474 -239 48 -31 92 -56 97 -56
5 0 9 -4 9 -10 0 -5 6 -10 13 -10 7 0 22 -8 33 -18 10 -9 45 -35 76 -56 32
-21 65 -46 75 -55 10 -9 36 -29 58 -45 136 -100 433 -394 540 -534 6 -7 15
-18 20 -25 28 -33 123 -165 133 -184 7 -12 18 -27 25 -35 41 -41 227 -374 287
-513 11 -27 25 -59 30 -70 41 -92 101 -263 140 -400 35 -120 83 -352 96 -460
3 -22 7 -56 9 -75 15 -116 18 -177 18 -380 1 -206 -6 -368 -18 -430 -3 -14 -7
-46 -10 -71 -3 -25 -8 -56 -10 -70 -3 -13 -8 -40 -11 -59 -21 -141 -110 -469
-158 -585 -7 -16 -19 -46 -26 -65 -16 -46 -131 -302 -141 -315 -4 -6 -21 -35
-37 -65 -16 -30 -39 -73 -51 -95 -31 -54 -205 -315 -228 -340 -10 -11 -31 -38
-48 -60 -81 -110 -301 -341 -435 -456 -41 -35 -80 -68 -86 -74 -6 -5 -26 -21
-44 -35 -18 -14 -48 -36 -66 -50 -68 -53 -90 -68 -222 -153 -166 -106 -397
-224 -582 -298 -91 -36 -310 -108 -310 -102 0 3 -7 0 -15 -7 -8 -7 -15 -10
-15 -6 0 3 -12 1 -26 -4 -22 -9 -153 -39 -238 -56 -85 -16 -147 -27 -182 -30
-23 -2 -55 -6 -70 -9 -103 -19 -558 -27 -699 -12 -33 4 -85 9 -115 12 -30 3
-64 8 -76 10 -11 2 -45 7 -75 11 -30 3 -58 9 -64 12 -5 3 -21 7 -35 7 -28 2
-195 41 -250 58 -19 6 -37 12 -40 12 -35 7 -77 19 -85 24 -5 3 -13 6 -17 7 -5
1 -9 2 -10 4 -2 1 -10 3 -18 5 -8 1 -58 19 -110 39 -52 20 -102 38 -110 40
-52 13 -323 150 -445 224 -49 30 -100 60 -112 66 -13 6 -23 14 -23 19 0 4 -6
7 -13 7 -7 0 -22 8 -33 18 -10 9 -45 35 -76 56 -32 21 -65 46 -75 55 -10 9
-36 29 -58 45 -147 109 -452 414 -561 561 -16 22 -36 48 -45 58 -9 10 -34 43
-55 75 -21 31 -47 66 -56 76 -10 11 -18 26 -18 33 0 7 -4 13 -9 13 -5 0 -12
11 -15 24 -4 17 5 40 37 87 23 35 85 136 137 224 57 95 116 181 146 212 46 46
55 51 88 48 56 -5 75 -26 100 -117 7 -24 10 -26 29 -15 12 7 43 31 68 54 83
75 98 77 616 77 248 1 455 4 458 8 5 5 9 152 6 250 -1 15 -39 17 -503 17 -277
0 -519 0 -538 0 l-36 1 1 1248 c0 686 -1 1255 -3 1264 -3 13 -14 17 -46 15
-22 -1 -47 2 -54 6 -6 5 -12 4 -12 -1 0 -6 -14 -7 -35 -2 -19 4 -37 5 -39 1
-6 -8 -48 -7 -63 2 -6 4 -15 1 -21 -6 -6 -8 -10 -428 -11 -1227 -1 -668 -3
-1228 -5 -1245 -5 -45 -44 -183 -61 -216 -9 -16 -15 -30 -15 -31 5 -15 -89
-223 -152 -337 -32 -57 -58 -107 -58 -112 0 -5 -4 -9 -10 -9 -5 0 -10 -4 -10
-10 0 -5 -14 -33 -31 -61 l-32 -51 -39 69 c-101 172 -255 516 -283 633 -3 8
-11 34 -19 57 -9 22 -17 52 -20 65 -2 12 -9 37 -14 53 -16 47 -55 217 -57 245
0 14 -4 30 -7 35 -3 6 -9 35 -12 65 -4 30 -9 69 -11 85 -3 17 -7 44 -10 60
-31 198 -26 644 10 895 3 19 7 53 10 74 9 62 62 308 74 339 6 15 8 27 5 27 -4
0 -1 7 6 15 7 8 10 15 7 15 -6 0 66 219 102 310 70 176 248 529 272 538 5 2 9
8 9 14 0 5 11 24 25 42 14 18 25 36 25 39 0 14 172 245 255 341 104 123 329
341 444 432 13 10 32 27 43 37 10 9 22 17 27 17 5 0 11 4 13 9 2 5 53 44 113
86 377 264 806 452 1246 545 133 29 155 33 249 45 25 3 63 8 85 11 22 3 72 8
110 11 39 2 71 6 73 7 4 5 475 -2 520 -8z"/>
<path d="M4992 5521 c-5 -3 -43 -94 -86 -201 -42 -107 -81 -204 -86 -215 -8
-18 -25 -60 -91 -230 -11 -27 -24 -59 -29 -70 -5 -11 -52 -130 -105 -265 -53
-135 -105 -263 -115 -285 -9 -22 -23 -58 -30 -80 -7 -22 -16 -44 -20 -50 -4
-5 -17 -37 -29 -70 -13 -33 -28 -73 -36 -90 -7 -16 -48 -120 -91 -230 -43
-110 -84 -207 -92 -215 -13 -13 -14 -13 -10 0 3 8 1 26 -4 40 -6 14 -11 32
-13 40 -2 8 -17 62 -34 120 -44 153 -162 572 -166 590 -4 14 -37 132 -71 245
-8 28 -16 57 -18 65 -2 8 -16 58 -31 110 -14 52 -27 100 -29 105 -1 6 -8 30
-15 55 -8 25 -14 50 -15 55 -2 6 -8 28 -14 50 -6 22 -11 45 -12 50 0 12 -117
23 -146 13 -11 -3 -25 -3 -31 0 -6 4 -34 5 -63 3 l-51 -3 6 -67 c4 -36 8 -84
11 -106 12 -107 1 -217 -42 -430 -2 -11 -6 -32 -9 -46 -7 -36 -117 -462 -154
-593 -17 -60 -33 -123 -35 -140 -3 -17 -7 -40 -10 -51 -22 -109 -24 -301 -6
-392 7 -32 13 -63 14 -70 1 -7 5 -16 9 -19 4 -4 7 -16 7 -27 0 -35 72 -157
125 -210 51 -52 139 -104 192 -113 16 -2 34 -7 42 -9 74 -27 311 -24 384 4 15
6 27 8 27 5 0 -2 14 3 31 12 37 19 43 13 53 -48 6 -37 8 -39 38 -36 30 3 34 8
58 72 14 37 35 73 46 79 10 6 22 15 26 21 4 6 8 7 8 3 0 -13 146 90 222 156
151 132 290 238 413 312 75 46 326 175 340 175 3 0 27 9 52 21 25 11 53 22 62
24 9 2 39 12 67 23 l51 21 11 -22 c10 -22 206 -518 208 -527 0 -3 6 -18 13
-35 7 -16 23 -57 36 -90 13 -33 29 -73 36 -90 7 -16 13 -32 14 -35 32 -93 44
-111 72 -108 22 2 29 10 39 48 7 25 20 70 29 100 9 30 18 62 20 70 2 8 47 166
100 350 54 184 107 373 119 419 l21 83 145 -6 c80 -3 161 -8 180 -10 46 -5
139 -17 160 -21 9 -2 41 -6 71 -10 30 -4 57 -9 62 -12 4 -2 20 -6 35 -9 23 -4
49 -10 157 -38 53 -14 71 -20 80 -25 6 -3 15 -6 20 -8 39 -9 185 -70 185 -78
0 -3 -5 -14 -11 -24 -34 -53 31 -107 113 -94 24 3 56 7 71 7 25 1 27 4 22 26
-10 39 -77 141 -108 164 -27 20 -29 20 -41 3 -7 -9 -11 -28 -8 -42 5 -29 4
-29 -34 -11 -68 32 -105 47 -201 80 -57 19 -103 33 -103 30 0 -3 -8 0 -19 5
-10 6 -31 13 -47 16 -16 2 -38 7 -49 9 -132 27 -178 36 -224 41 -30 4 -63 8
-73 10 -30 6 -183 17 -276 20 -45 1 -85 5 -88 7 -3 3 18 86 46 184 45 156 159
553 196 684 7 25 25 86 39 135 31 101 30 98 40 143 4 18 12 35 16 38 5 3 7 9
4 14 -2 4 4 34 15 66 12 33 20 59 19 59 -2 0 21 84 29 105 3 8 6 20 7 25 2 6
17 61 34 123 18 62 30 115 28 120 -4 5 -236 8 -269 3 -7 -1 -13 -19 -48 -141
-12 -41 -28 -97 -37 -125 -8 -27 -16 -54 -18 -60 -8 -35 -19 -76 -32 -115 -8
-25 -16 -52 -18 -60 -3 -15 -151 -529 -202 -700 -13 -47 -31 -110 -39 -140 -8
-30 -21 -74 -29 -97 -8 -23 -16 -53 -19 -67 -2 -13 -10 -35 -17 -48 -7 -12
-11 -25 -10 -28 1 -3 -8 -40 -20 -82 -22 -78 -25 -81 -79 -92 -14 -3 -43 -10
-64 -15 -22 -5 -43 -8 -47 -6 -4 3 -41 91 -82 197 -42 106 -82 207 -88 223 -7
17 -13 32 -14 35 -1 3 -5 14 -10 25 -32 80 -207 522 -209 530 -5 16 -17 48
-31 80 -8 17 -26 62 -40 100 -15 39 -31 79 -36 90 -22 53 -141 360 -140 360 1
0 -12 31 -28 69 -22 52 -34 70 -50 71 -11 1 -24 -1 -29 -4z m44 -723 c16 -50
353 -917 375 -965 10 -24 19 -47 19 -53 0 -5 11 -35 25 -65 l24 -56 -34 -15
c-19 -8 -36 -14 -37 -14 -8 2 -217 -89 -301 -131 -173 -87 -440 -259 -508
-328 -9 -9 -47 -43 -84 -76 -38 -33 -73 -64 -79 -70 -28 -25 -86 -65 -95 -65
-6 0 -11 -4 -11 -8 0 -4 -19 -17 -43 -29 l-43 -21 78 197 c43 108 82 206 88
219 11 24 17 39 50 122 11 30 25 64 30 75 4 11 29 72 54 135 25 63 50 129 57
145 7 17 13 35 15 40 2 9 79 199 107 265 6 14 11 27 11 30 2 7 65 166 86 215
9 22 57 140 105 263 48 122 91 222 94 222 3 0 11 -15 17 -32z m-1343 -482 c23
-35 37 -86 43 -155 11 -121 13 -136 29 -191 9 -30 18 -62 20 -70 2 -8 15 -58
30 -110 14 -52 28 -102 30 -110 2 -8 24 -87 49 -175 24 -88 63 -225 85 -305
22 -80 54 -192 70 -248 l29 -104 -37 -16 c-20 -9 -43 -17 -51 -18 -8 -1 -33
-6 -55 -11 -62 -15 -221 -9 -310 12 -5 1 -27 5 -48 10 -60 12 -128 49 -178 96
-46 45 -115 167 -125 223 -3 16 -7 33 -10 37 -20 33 -24 379 -4 379 3 0 6 8 7
18 5 56 17 110 29 135 8 15 12 27 9 27 -4 0 -3 6 2 13 4 6 8 17 9 24 4 23 36
115 50 142 8 14 14 29 14 33 0 4 13 35 29 70 16 35 29 65 29 68 -1 3 10 23 23
45 13 22 30 52 38 66 7 14 24 39 38 55 14 16 30 36 37 45 16 23 66 47 87 42
10 -3 24 -15 32 -27z m2201 -619 c-8 -23 -24 -76 -35 -117 -20 -68 -23 -73
-31 -50 -16 41 -37 93 -49 125 -18 46 -20 65 -6 66 6 0 19 2 27 4 8 2 31 6 50
10 19 3 36 8 39 10 2 3 7 2 12 -1 4 -2 1 -23 -7 -47z"/>
</g>
</svg>
