<?xml version="1.0" encoding="UTF-8" standalone="no"?>
<!-- Created with Inkscape (http://www.inkscape.org/) -->

<svg
   xmlns:dc="http://purl.org/dc/elements/1.1/"
   xmlns:cc="http://creativecommons.org/ns#"
   xmlns:rdf="http://www.w3.org/1999/02/22-rdf-syntax-ns#"
   xmlns:svg="http://www.w3.org/2000/svg"
   xmlns="http://www.w3.org/2000/svg"
   xmlns:sodipodi="http://sodipodi.sourceforge.net/DTD/sodipodi-0.dtd"
   xmlns:inkscape="http://www.inkscape.org/namespaces/inkscape"
   id="svg2"
   version="1.1"
   inkscape:version="0.48.0 r9654"
   width="249.95103"
   height="117.71099"
   xml:space="preserve"
   sodipodi:docname="2012May1_LBG_Q1_IMS.pdf"><metadata
     id="metadata8"><rdf:RDF><cc:Work
         rdf:about=""><dc:format>image/svg+xml</dc:format><dc:type
           rdf:resource="http://purl.org/dc/dcmitype/StillImage" /><dc:title></dc:title></cc:Work></rdf:RDF></metadata><defs
     id="defs6"><clipPath
       clipPathUnits="userSpaceOnUse"
       id="clipPath24"><path
         d="m 0,841.89 595.28,0 L 595.28,0 0,0 0,841.89 z"
         id="path26"
         inkscape:connector-curvature="0" /></clipPath></defs><sodipodi:namedview
     pagecolor="#434343"
     bordercolor="#666666"
     borderopacity="1"
     objecttolerance="10"
     gridtolerance="10"
     guidetolerance="10"
     inkscape:pageopacity="0"
     inkscape:pageshadow="2"
     inkscape:window-width="1858"
     inkscape:window-height="1058"
     id="namedview4"
     showgrid="false"
     fit-margin-top="5"
     fit-margin-left="5"
     fit-margin-right="5"
     fit-margin-bottom="5"
     inkscape:zoom="1"
     inkscape:cx="14.306369"
     inkscape:cy="197.28782"
     inkscape:window-x="54"
     inkscape:window-y="-8"
     inkscape:window-maximized="1"
     inkscape:current-layer="g10" /><g
     id="g10"
     inkscape:groupmode="layer"
     inkscape:label="2012May1_LBG_Q1_IMS"
     transform="matrix(1.25,0,0,-1.25,-426.74483,189.47323)"><text
       transform="matrix(1,0,0,-1,56.103,673.8223)"
       id="text12"><tspan
         style="font-size:43px;font-variant:normal;font-weight:500;font-stretch:normal;writing-mode:lr-tb;fill:#434343;fill-opacity:1;fill-rule:nonzero;stroke:none;font-family:Avenir 65 Medium;-inkscape-font-specification:Avenir-Medium"
         x="0 35.776001 59.683998 71.638 95.545998 119.454 143.362"
         y="0"
         sodipodi:role="line"
         id="tspan14">Q1 2012</tspan></text>
<text
       transform="matrix(1,0,0,-1,56.1025,615.0215)"
       id="text16"><tspan
         style="font-size:33px;font-variant:normal;font-weight:500;font-stretch:normal;writing-mode:lr-tb;fill:#434343;fill-opacity:1;fill-rule:nonzero;stroke:none;font-family:Avenir 65 Medium;-inkscape-font-specification:Avenir-Medium"
         x="0 9.1739998 27.521999 39.731998 58.080002 70.290001 78.209999 106.326 115.5 145.39799 162.52499 180.873 198 218.16299 236.511 264.62701 282.97501 301.323 313.53299 322.707 341.05499 353.26501 370.392 382.60199 400.95001 429.06601 447.414 465.76199"
         y="0"
         sodipodi:role="line"
         id="tspan18">Interim Management Statement</tspan></text>
<g
       id="g20"
       transform="matrix(1.297376,0,0,1.297376,-159.79699,-18.261798)"><g
         id="g22"
         clip-path="url(#clipPath24)"><g
           id="g28"
           transform="translate(534.8477,92.1836)"><path
             d="m 0,0 c 1.232,-0.904 2.509,-1.563 2.509,-3.002 0,-0.416 -0.534,-0.828 -1.728,-0.828 -0.904,0 -1.89,0.248 -2.344,0.91 -0.369,0.494 0.165,1.152 -0.164,1.645 -0.248,0.412 -0.822,0.207 -1.193,0.412 -0.451,0.246 -0.492,0.453 -0.782,1.068 C -4.03,0.945 -5.141,2.18 -6.457,3.496 -7.566,4.605 -8.759,5.182 -9.293,5.141 -9.669,5.1 -9.79,5.1 -10.161,5.1 c -0.946,0 -1.771,-0.907 -3.126,-1.481 -0.945,-0.41 -1.481,-0.658 -2.097,-0.74 l -0.205,-0.248 1.232,0.041 c 1.151,0 2.673,0.166 3.824,0.166 1.198,0 1.774,-1.07 2.226,-2.18 0.907,-2.263 2.263,-5.515 3.868,-8.228 0.779,-1.276 1.438,-2.098 1.438,-3.668 0,-0.494 -0.042,-1.153 -0.701,-1.153 -0.903,0 -3.206,0.946 -3.206,1.979 0,0.785 0.616,1.113 0.616,1.894 0,0.495 -0.74,0.411 -0.904,0.864 -0.575,2.425 -1.275,4.816 -2.636,6.256 -0.701,0.74 -0.782,1.07 -1.481,1.07 -0.371,0 -0.741,-0.082 -1.07,-0.207 -1.89,-0.699 -4.399,-2.801 -7.525,-3.746 -1.192,-0.371 -1.399,0.328 -2.631,0.082 l 0.083,0 c -0.993,-0.205 -1.774,-0.781 -3.131,-1.153 -1.892,-0.535 -5.142,-0.779 -7.731,-0.453 -1.85,0.248 -4.241,0.617 -5.269,0.576 -0.78,-2.259 -2.467,-5.224 -4.934,-6.38 -1.315,-0.575 -1.727,-1.397 -1.315,-2.875 0.493,-1.848 2.138,-3.209 3.001,-4.772 0.781,-1.353 2.055,-3.496 3.413,-4.195 1.358,-0.697 2.184,-1.725 2.184,-2.586 0,-0.412 -0.17,-0.66 -0.58,-0.66 l -2.713,0 c -0.412,0 -0.617,0.248 -0.701,0.414 -0.37,0.697 -0.123,1.353 -0.616,1.97 -0.371,0.452 -0.659,0.329 -1.11,0.698 -0.823,0.781 -0.206,1.234 -0.823,2.224 -1.727,2.711 -2.467,3.368 -3.907,5.305 -0.821,1.025 -1.809,1.522 -1.809,2.877 0,1.641 1.645,1.93 1.604,3.582 -1.069,-0.785 -2.304,-1.402 -4.199,-1.652 -0.247,-0.041 -0.906,-0.535 -1.194,-0.864 -0.657,-0.658 -0.903,-1.314 -0.987,-2.3 -0.204,-2.223 -0.655,-4.485 -0.37,-6.7 0.37,-1.445 0.62,-1.937 1.81,-2.718 0.741,-0.493 1.604,-1.192 1.687,-2.219 0,-0.287 -0.083,-0.617 -0.495,-0.617 l -2.92,0 c -0.287,0 -0.533,0.207 -0.616,0.371 -0.329,0.574 -0.123,0.984 -0.246,1.644 -0.288,1.356 -1.809,1.274 -1.809,2.67 0,0.414 0.246,0.949 0.287,1.813 0.082,1.888 0.658,4.935 0.082,8.631 -0.246,2.146 1.974,2.226 3.127,4.119 0.697,1.072 0.492,0.617 0.903,1.398 0.412,0.822 0.33,1.399 0.289,1.891 0,0.619 -0.617,1.939 -0.206,4.613 0.165,1.192 0.739,2.385 1.521,3.412 0,0.041 0,0.205 -0.248,0.205 -1.15,-0.082 -1.15,0.205 -1.932,0.205 -0.739,0 -1.316,-0.617 -1.439,-0.943 -0.37,0.164 -0.533,0.574 -0.533,0.82 0,0.412 0.081,0.782 0.492,1.194 0.164,0.164 0,0.246 -0.205,0.246 -0.905,0 -1.769,-1.11 -1.974,-1.891 -0.536,0.082 -0.577,0.781 -0.823,0.781 -0.246,0 -0.411,-0.371 -0.411,-0.742 0,-2.631 4.279,-3.207 4.279,-6.66 0,-3.994 -4.814,-3.17 -4.814,-4.609 0,-0.289 0.206,-0.535 0.577,-0.701 -0.165,-0.37 -0.577,-0.534 -1.028,-0.534 -1.069,0 -1.853,0.78 -1.853,1.85 0,2.18 2.92,2.223 2.92,3.871 0,0.781 -0.492,1.027 -0.945,1.398 -2.795,1.975 -4.359,3.948 -4.359,7.196 0,3.496 2.427,6.174 5.593,6.174 4.606,0 4.73,-5.309 8.929,-5.762 1.562,1.068 3.413,1.685 5.222,1.685 2.715,0 3.905,-0.699 6.789,-0.699 1.153,0 3.087,0.328 5.387,1.891 0.864,0.576 1.234,0.699 2.015,1.4 1.81,1.567 3.496,4.61 3.496,6.787 l 0,-0.121 c 0,0.698 -0.165,1.11 -0.493,1.11 -0.988,0 -1.851,-0.907 -2.838,-1.852 -0.617,-0.656 0.327,-0.943 -1.069,-1.726 -0.494,-0.247 -1.069,0.207 -1.604,0.207 -1.11,0 -1.603,1.314 -1.603,2.464 0,0.579 0.452,0.743 0.698,1.276 0.578,1.113 0.536,1.521 1.069,2.633 0.329,0.742 0.906,1.234 0.866,1.769 0,0.203 -0.164,0.328 -0.164,0.533 0,1.116 1.479,1.856 1.479,2.965 0,0.617 -0.7,0.906 -0.864,1.399 -0.165,0.494 -0.041,0.617 -0.041,0.617 0.041,0.082 0.124,0.125 0.205,0.125 0.577,0 0.824,-0.619 1.355,-0.947 0.044,0.74 -0.203,0.904 -0.203,1.439 0,0.287 -0.041,0.74 0.247,0.74 0.37,0 0.327,-0.494 0.658,-0.74 0.412,-0.328 0.781,-0.289 1.233,-0.576 0.576,-0.371 0.904,-0.987 1.11,-1.028 0.576,-0.082 0.74,0.618 0.453,1.028 0.657,0.041 1.316,-0.494 2.184,-0.494 1.357,0 1.811,-0.369 2.057,-0.575 0.864,-0.742 1.027,-1.316 1.972,-1.316 0.494,0 0.741,0.412 0.866,0.574 0.657,-0.49 0.698,-1.724 0,-2.754 0.287,-0.869 1.52,-0.949 2.096,-1.361 0.575,-0.41 0.493,-0.617 0.904,-0.863 0.33,-0.207 0.619,-0.166 0.864,0 0.289,-1.151 -0.7,-2.18 -1.891,-2.344 0.041,-1.48 1.605,-2.387 2.302,-2.756 -0.411,-0.904 -1.152,-1.191 -1.809,-1.357 0.205,-0.905 1.194,-2.221 0.698,-3.412 -0.452,0.205 -1.109,0 -1.109,-0.659 0,-0.74 0.945,-1.117 -0.041,-1.65 -0.453,-0.246 -0.535,-0.904 0.287,-1.521 1.07,0.287 2.097,0.246 3.288,0.246 0.743,0 1.73,0.207 2.387,0.207 1.238,0 1.979,-0.494 2.884,-1.481 C -4.398,4.359 -2.344,1.768 0,0"
             style="fill:#434343;fill-opacity:1;fill-rule:nonzero;stroke:none"
             id="path30"
             inkscape:connector-curvature="0" /></g><g
           id="g32"
           transform="translate(473.8047,98.7617)"><path
             d="m 0,0 c 0.494,0 1.398,2.715 3.248,2.715 0.535,0 0.658,-0.205 0.658,-0.41 0,-0.371 -0.616,-0.701 -0.616,-1.194 0,-0.082 0.04,-0.205 0.205,-0.205 0.452,0 0.782,0.987 2.631,0.987 0.494,0 0.905,-0.041 1.356,-0.164 C 7.688,1.688 8.1,1.48 7.936,2.057 7.482,3.33 6.085,4.529 4.111,4.529 2.137,4.529 0.082,2.754 -0.165,0.617 -0.207,0.248 -0.207,0 0,0"
             style="fill:#434343;fill-opacity:1;fill-rule:nonzero;stroke:none"
             id="path34"
             inkscape:connector-curvature="0" /></g><g
           id="g36"
           transform="translate(507.9453,115.709)"><path
             d="M 0,0 C -0.535,0.211 -0.617,0.498 -0.451,1.156 -0.33,1.855 -0.289,2.145 -0.617,2.227 -0.906,2.309 -1.275,2.145 -1.646,1.732 -1.974,1.281 -2.51,0.744 -2.674,0.293 c -0.165,-0.58 0.534,-0.498 0.042,-1.443 -0.864,-1.563 -1.071,-1.891 -1.481,-3.002 -0.37,-1.153 -0.658,-1.317 -0.863,-1.686 -0.248,-0.33 0.33,-0.371 0.986,-0.166 0.701,0.248 0.74,-0.574 0.494,-1.15 -0.207,-0.412 -0.041,-0.576 0.534,-0.123 0.534,0.41 -0.288,0.74 -0.082,2.056 0.205,1.194 0.452,1.85 1.193,3.041 0.618,1.03 1.152,1.77 2.22,1.401 C 0.78,-0.986 0.575,-0.246 0,0"
             style="fill:#434343;fill-opacity:1;fill-rule:nonzero;stroke:none"
             id="path38"
             inkscape:connector-curvature="0" /></g><g
           id="g40"
           transform="translate(530.8174,80.7813)"><path
             d="M 0,0 C 0.205,0 0.247,0.289 0.247,0.539 0.247,1.113 -0.081,1.98 -0.534,2.35 -0.657,1.484 -1.069,0.908 -1.069,0.539 -1.069,0.246 -0.286,0 0,0"
             style="fill:#434343;fill-opacity:1;fill-rule:nonzero;stroke:none"
             id="path42"
             inkscape:connector-curvature="0" /></g><g
           id="g44"
           transform="translate(535.916,89.0566)"><path
             d="m 0,0 c 0.33,0 0.824,0.125 0.824,0.373 0,0.492 -0.742,1.356 -1.398,1.561 C -0.122,1.072 -0.574,0 0,0"
             style="fill:#434343;fill-opacity:1;fill-rule:nonzero;stroke:none"
             id="path46"
             inkscape:connector-curvature="0" /></g><g
           id="g48"
           transform="translate(513.3369,100.2832)"><path
             d="m 0,0 c 4.646,-2.137 4.358,-6.043 4.77,-5.055 0.165,0.41 0.781,2.342 -0.865,4.192 -1.274,1.482 -1.767,1.111 -1.274,2.343 2.015,4.899 3.291,12.303 -2.754,14.897 -0.7,0.289 -1.28,0.289 -1.28,0.164 0,-0.123 0.662,-0.33 1.444,-0.863 C 4.071,13.002 2.836,5.723 -0.864,2.186 -2.103,0.988 -1.526,0.699 0,0"
             style="fill:#434343;fill-opacity:1;fill-rule:nonzero;stroke:none"
             id="path50"
             inkscape:connector-curvature="0" /></g><g
           id="g52"
           transform="translate(497.4531,66.1855)"><path
             d="M 0,0 C 0.33,0 0.164,0.494 0.041,0.699 -0.246,1.191 -0.78,1.52 -1.234,1.727 -1.111,1.232 -1.069,0 -0.574,0 L 0,0"
             style="fill:#434343;fill-opacity:1;fill-rule:nonzero;stroke:none"
             id="path54"
             inkscape:connector-curvature="0" /></g><g
           id="g56"
           transform="translate(483.4268,66.1855)"><path
             d="M 0,0 C 0.329,0 0.082,0.494 -0.041,0.699 -0.329,1.191 -0.905,1.479 -1.358,1.686 -1.234,1.191 -1.151,0 -0.659,0 L 0,0"
             style="fill:#434343;fill-opacity:1;fill-rule:nonzero;stroke:none"
             id="path58"
             inkscape:connector-curvature="0" /></g><path
           d="m 390.78094,61.409791 130.04308,0 0,2.246 -130.04308,0 0,-2.246 z"
           style="fill:#434343;fill-opacity:1;fill-rule:nonzero;stroke:none"
           id="path64"
           inkscape:connector-curvature="0" /><g
           id="g60"
           transform="translate(500.4189,94.0332)"><path
             d="m 0,0 c 2.551,0.289 2.962,0.863 3.413,2.797 0.205,0.904 0.863,1.851 1.44,2.467 0.37,0.412 0.74,0.74 1.11,1.357 0.124,0.248 0.206,0.453 0,0.369 C 5.676,6.785 4.812,6.209 4.44,5.922 2.632,4.648 -0.125,4.031 -1.233,4.031 c -2.349,0 -4.364,0.698 -6.502,0.698 -6.414,0 -8.806,-5.018 -8.477,-7.936 0.041,-0.453 0.123,-0.494 0.289,-0.494 0.453,0 0.826,1.728 2.431,3.248 2.344,2.223 4.893,3.496 8.513,3.496 2.632,0 3.705,-0.863 3.705,-1.191 0,-0.657 -1.116,-0.7 -1.034,-1.358 C -2.308,0.289 -1.686,-0.205 0,0"
             style="fill:#434343;fill-opacity:1;fill-rule:nonzero;stroke:none"
             id="path62"
             inkscape:connector-curvature="0" /></g><g
           id="g66"
           transform="translate(405.65587,106.55954)"><path
             d="M 0,0 1.524,-4 -1.564,-4 0,0 z m -11.388,0.635 c 0.753,0 1.644,-0.356 1.644,-1.307 0,-0.851 -0.635,-1.426 -1.565,-1.426 l -2.158,0 0,2.733 2.079,0 z M 0.354,-17.789 c 1.071,0 1.842,-0.455 1.842,-1.563 0,-1.05 -0.692,-1.605 -1.743,-1.584 l -1.762,0 0,3.147 1.663,0 z m 37.505,-0.039 c 1.19,0 1.881,-0.672 1.881,-1.723 0,-1.049 -0.751,-1.703 -2,-1.703 l -1.484,0 0,3.426 1.603,0 z M -11.09,-4.137 c 1.01,0 1.683,-0.595 1.683,-1.447 0,-1.246 -1.128,-1.523 -2.06,-1.523 l -2,0 0,2.97 2.377,0 z m 44.599,-5.09 2.315,0 0,11.961 -2.315,0 0,-11.961 z m -1.65,28.159 c 2.18,0 3.764,-1.604 3.764,-3.782 0,-2.218 -1.584,-3.822 -3.764,-3.822 l -1.584,0 0,7.604 1.584,0 z m -47.603,2.177 0,-11.959 7.643,0 0,2.237 -5.346,0 0,9.722 -2.297,0 z m 9.664,0 0,-11.959 7.662,0 0,2.237 -5.347,0 0,9.722 -2.315,0 z m 29.979,0 -3.049,-5.187 -3.227,5.187 -2.713,0 4.653,-7.187 -2.891,-4.772 2.613,0 7.209,11.959 -2.595,0 z M 8.354,19.07 c 2.099,0 3.843,-1.722 3.843,-3.92 0,-2.257 -1.703,-3.98 -3.843,-3.98 -2.138,0 -3.84,1.723 -3.84,3.98 0,2.198 1.742,3.92 3.84,3.92 m 4.417,-36.74 c 2.098,0 3.841,-1.723 3.841,-3.92 0,-2.258 -1.702,-3.98 -3.841,-3.98 -2.138,0 -3.842,1.722 -3.842,3.98 0,2.197 1.743,3.92 3.842,3.92 M 39.92,17.822 c 0,-1.642 1.05,-2.773 3.207,-3.445 1.347,-0.436 2.416,-0.791 2.416,-1.842 0,-0.971 -0.97,-1.406 -1.94,-1.406 -1.208,0 -2.396,0.476 -3.484,1.15 l 0,-2.318 c 0.789,-0.455 2.117,-0.93 3.543,-0.93 2,0 4.139,1.266 4.139,3.604 0,2.277 -1.782,3.148 -3.327,3.623 -2.001,0.633 -2.355,1.049 -2.355,1.623 0,0.832 0.75,1.248 1.918,1.248 1.09,0 2.08,-0.356 2.972,-0.752 l 0,2.178 c -0.972,0.476 -2,0.654 -3.011,0.654 -2.395,0 -4.078,-1.326 -4.078,-3.387 M 52.341,-3.246 c 0,-3.664 2.911,-6.139 6.416,-6.139 1.049,0 2.118,0.197 3.169,0.496 l 0,6.137 -2.217,0 0,-4.396 c -0.199,-0.04 -0.654,-0.079 -0.933,-0.079 -2.434,0 -4.08,1.704 -4.08,3.981 0,2.355 1.724,3.92 4.179,3.92 1.051,0 1.922,-0.217 2.772,-0.494 l 0,2.218 c -0.711,0.237 -1.742,0.454 -2.791,0.454 -3.645,0 -6.515,-2.456 -6.515,-6.098 M -16.26,-21.629 c 0,-3.664 2.911,-6.139 6.416,-6.139 1.051,0 2.119,0.198 3.17,0.495 l 0,6.138 -2.22,0 0,-4.396 c -0.196,-0.039 -0.653,-0.078 -0.929,-0.078 -2.437,0 -4.079,1.701 -4.079,3.98 0,2.356 1.721,3.92 4.177,3.92 1.051,0 1.921,-0.219 2.772,-0.496 l 0,2.219 c -0.713,0.238 -1.741,0.455 -2.791,0.455 -3.644,0 -6.516,-2.455 -6.516,-6.098 m 44.932,5.979 0,-7.524 c 0,-1.445 -0.971,-2.396 -2.416,-2.396 -1.426,0 -2.455,0.97 -2.455,2.396 l 0,7.524 -2.278,0 0,-7.584 c 0,-2.713 2.04,-4.534 4.733,-4.534 2.692,0 4.733,1.842 4.733,4.534 l 0,7.584 -2.317,0 z m -4.49,18.384 -2.279,0 0,-11.961 2.279,0 0,5.643 4.871,-5.643 2.988,0 -5.324,6.059 5.009,5.902 -2.773,0 -4.771,-5.664 0,5.664 z m 9.837,-18.384 0,-11.942 2.237,0 0,4.139 1.584,0 c 2.356,-0.018 4.219,1.527 4.219,3.922 0,2.336 -1.764,3.881 -4.08,3.881 l -3.96,0 z m -30.495,6.423 2.496,0 -4.912,12.02 -2.157,0 -4.931,-12.02 2.396,0 1.228,3.149 4.672,0 1.208,-3.149 z m 44.103,11.961 0,-7.861 -6.316,7.861 -1.94,0 0,-11.961 2.258,0 0,8.258 6.574,-8.258 1.643,0 0,11.961 -2.219,0 z m -31.428,0 0,-7.861 -6.316,7.861 -1.942,0 0,-11.961 2.258,0 0,8.258 6.574,-8.258 1.645,0 0,11.961 -2.219,0 z m -19.785,-18.384 0,-11.942 2.258,0 0,4.537 1.445,0 2.514,-4.537 2.615,0 -2.892,4.932 c 1.328,0.594 2.16,1.822 2.16,3.308 0,2.356 -1.703,3.702 -4.04,3.702 l -4.06,0 z m -12.158,18.384 0,-11.961 4.396,0 c 2.674,0 4.258,1.346 4.258,3.565 0,1.189 -0.635,2.139 -1.723,2.791 0.692,0.457 1.327,1.267 1.327,2.318 0,2 -1.467,3.287 -3.723,3.287 l -4.535,0 z m 43.742,18.375 0,-11.959 3.842,0 c 3.445,0 6.139,2.633 6.139,6 0,3.325 -2.694,5.959 -6.139,5.959 l -3.842,0 z M 2.156,15.15 c 0,-3.445 2.773,-6.16 6.198,-6.16 3.426,0 6.199,2.715 6.199,6.16 0,3.366 -2.831,6.098 -6.199,6.118 C 4.988,21.248 2.156,18.516 2.156,15.15 m 4.416,-36.74 c 0,-3.447 2.773,-6.158 6.199,-6.158 3.425,0 6.198,2.711 6.198,6.158 0,3.367 -2.831,6.1 -6.198,6.119 -3.367,-0.019 -6.199,-2.752 -6.199,-6.119"
             style="fill:#434343;fill-opacity:1;fill-rule:nonzero;stroke:none"
             id="path68"
             inkscape:connector-curvature="0" /></g></g></g></g></svg>